<svg width="91" height="43" viewBox="0 0 91 43" fill="none" xmlns="http://www.w3.org/2000/svg">
<path d="M44.3565 9.1324L47.7057 6.00299C47.8807 5.8844 48.0775 5.80143 48.2847 5.75881C48.4919 5.7162 48.7055 5.71479 48.9133 5.75466C49.1211 5.79452 49.3189 5.87489 49.4955 5.99115C49.6721 6.10742 49.824 6.2573 49.9425 6.43221C50.061 6.60713 50.1437 6.80364 50.186 7.0105C50.2283 7.21737 50.2292 7.43052 50.1888 7.63776C50.1484 7.84499 50.0675 8.04225 49.9506 8.21823C49.8337 8.39421 49.6832 8.54545 49.5077 8.66331C49.4403 8.70826 49.3698 8.74843 49.2967 8.78351L44.8935 10.071C44.7698 10.1296 44.6285 10.1394 44.4978 10.0984C44.3672 10.0575 44.2569 9.96879 44.189 9.85012C44.1211 9.73145 44.1006 9.59157 44.1317 9.45848C44.1627 9.32539 44.243 9.20892 44.3565 9.1324H44.3565Z" fill="#FD9727"/>
<path d="M41.6395 6.84781L42.972 2.46665C43.1587 2.08376 43.4902 1.79057 43.8935 1.65156C44.2969 1.51255 44.739 1.53913 45.1227 1.72543C45.5064 1.91173 45.8003 2.24251 45.9396 2.64499C46.0789 3.04747 46.0523 3.48869 45.8655 3.87158C45.8297 3.94414 45.7888 4.01409 45.7431 4.08092L42.5749 7.39265C42.4971 7.50514 42.3797 7.58417 42.246 7.6139C42.1123 7.64363 41.9723 7.62187 41.8541 7.55298C41.7358 7.48408 41.648 7.37314 41.6082 7.24238C41.5684 7.11162 41.5796 6.97068 41.6395 6.84781Z" fill="#FD9727"/>
<path d="M38.1127 6.17797L37.0713 1.71903C37.0411 1.29429 37.1813 0.874984 37.4609 0.553358C37.7406 0.231733 38.1368 0.0341309 38.5624 0.00402203C38.9881 -0.0260868 39.4083 0.113764 39.7306 0.392809C40.0529 0.671854 40.251 1.06724 40.2811 1.49197C40.2865 1.57268 40.2861 1.65366 40.2801 1.73432L39.1959 6.1831C39.1849 6.31931 39.1228 6.44636 39.0219 6.53879C38.921 6.63122 38.7889 6.68222 38.6519 6.68156C38.515 6.68091 38.3834 6.62865 38.2834 6.53526C38.1834 6.44187 38.1225 6.31423 38.1128 6.17792L38.1127 6.17797Z" fill="#FD9727"/>
<path d="M34.7234 7.35628L31.5873 4.0143C31.4679 3.83965 31.3843 3.6432 31.3412 3.43622C31.2982 3.22924 31.2965 3.01581 31.3363 2.80818C31.3761 2.60055 31.4566 2.4028 31.5731 2.22629C31.6897 2.04978 31.8401 1.89798 32.0156 1.77961C32.1911 1.66123 32.3883 1.57861 32.5959 1.53648C32.8035 1.49435 33.0174 1.49354 33.2253 1.53411C33.4332 1.57468 33.6311 1.65582 33.8075 1.77287C33.9839 1.88993 34.1354 2.04059 34.2533 2.21622C34.2983 2.28349 34.3386 2.35384 34.3738 2.42674L35.664 6.82044C35.7227 6.94388 35.7325 7.08491 35.6915 7.21528C35.6505 7.34565 35.5616 7.45574 35.4427 7.5235C35.3237 7.59126 35.1835 7.61169 35.0502 7.58069C34.9168 7.54969 34.8001 7.46956 34.7234 7.35634V7.35628Z" fill="#FD9727"/>
<path d="M32.3777 10.1057L27.9872 8.7762C27.6034 8.58989 27.3096 8.25911 27.1703 7.85663C27.031 7.45415 27.0576 7.01294 27.2443 6.63005C27.431 6.24716 27.7625 5.95396 28.1659 5.81495C28.5692 5.67594 29.0114 5.70252 29.3951 5.88882C29.4678 5.9246 29.5379 5.96545 29.6049 6.01105L32.9238 9.17238C33.0366 9.24997 33.1158 9.36721 33.1456 9.50062C33.1754 9.63403 33.1536 9.77375 33.0845 9.89178C33.0155 10.0098 32.9043 10.0975 32.7732 10.1371C32.6421 10.1768 32.5008 10.1656 32.3777 10.1057H32.3777Z" fill="#FD9727"/>
<path d="M13.8014 16.5319C16.5149 16.5319 18.7573 17.4402 20.5286 19.2567C22.2986 21.0732 23.184 23.5833 23.1846 26.7869V41.9953H16.7802V27.5794C16.7802 25.9282 16.3334 24.6649 15.4399 23.7896C14.5463 22.915 13.3547 22.4774 11.8652 22.4767C10.2099 22.4767 8.88602 22.9887 7.89371 24.0127C6.90064 25.0367 6.40411 26.5724 6.40411 28.6198V41.9953H0V7.31775H6.40419V19.9997C7.95963 17.6885 10.4254 16.5326 13.8014 16.5319Z" fill="white"/>
<path d="M45.6228 17.5362H52.0273V42.306H45.6228V39.3834C43.703 41.7945 41.0056 42.9999 37.5306 42.9996C34.2206 42.9996 31.3826 41.7363 29.0164 39.2097C26.6497 36.6833 25.4664 33.5872 25.4666 29.9213C25.4666 26.2551 26.6499 23.1588 29.0164 20.6324C31.3822 18.106 34.2202 16.8428 37.5306 16.8426C41.0058 16.8426 43.7033 18.0482 45.6228 20.4593V17.5362ZM33.8072 34.9494C35.0979 36.2545 36.7362 36.9068 38.7221 36.9065C40.7079 36.9065 42.3545 36.2542 43.6619 34.9494C44.9689 33.6449 45.6226 31.9689 45.6228 29.9214C45.6228 27.8738 44.9692 26.1976 43.6619 24.8928C42.354 23.5888 40.7074 22.9366 38.7221 22.9363C36.7364 22.9363 35.0981 23.5884 33.8072 24.8928C32.5162 26.1978 31.8708 27.874 31.871 29.9214C31.871 31.9694 32.5164 33.6454 33.8072 34.9494Z" fill="white"/>
<path d="M55.7517 41.9956V5.83197H62.1559V41.9956H55.7517Z" fill="white"/>
<path d="M87.1772 38.8997C84.6282 41.4261 81.5171 42.6894 77.8438 42.6896C74.17 42.6896 71.0671 41.4263 68.5352 38.8997C66.0033 36.3731 64.7373 33.277 64.7372 29.6113C64.7372 25.9451 66.0032 22.8488 68.5352 20.3224C71.0672 17.796 74.1701 16.5328 77.8438 16.5326C81.5176 16.5326 84.6287 17.7959 87.1772 20.3224C89.7253 22.8488 90.9996 25.9451 91 29.6113C91 33.277 89.7257 36.3731 87.1772 38.8997ZM73.053 34.5157C74.3266 35.8034 75.9235 36.4473 77.8438 36.4475C79.7628 36.4475 81.368 35.8036 82.6593 34.5157C83.9503 33.2275 84.5957 31.5927 84.5955 29.6113C84.5955 27.6296 83.9501 25.9948 82.6593 24.7069C81.3686 23.4187 79.7634 22.7747 77.8438 22.7747C75.9239 22.7747 74.327 23.4187 73.053 24.7069C71.7784 25.9946 71.1412 27.6294 71.1416 29.6113C71.1416 31.5926 71.7788 33.2274 73.053 34.5157Z" fill="white"/>
</svg>
